<svg width="48" height="48" fill="none" xmlns="http://www.w3.org/2000/svg"><rect width="48" height="48" rx="8" fill="#F2F3F4"/><path d="M32.852 18.886a2 2 0 012.425 3.18l-.135.1-10 7a2 2 0 01-2.645-.31l-.105-.13-1.94-2.59-5.455 3.125a2 2 0 01-2.645-.61l-.09-.125a2 2 0 01.61-2.645l.135-.08 7-4a2 2 0 012.5.405l.105.13 1.84 2.45 8.4-5.9z" fill="#33658A"/><path d="M23.998 39.001c-8.284 0-15-6.716-15-15h-2c0 9.389 7.611 17 17 17v-2zm15-15c0 8.284-6.716 15-15 15v2c9.389 0 17-7.611 17-17h-2zm-15-15c8.284 0 15 6.716 15 15h2c0-9.389-7.611-17-17-17v2zm0-2c-9.389 0-17 7.611-17 17h2c0-8.284 6.716-15 15-15v-2z" fill="#33658A"/></svg>