<svg width="48" height="48" fill="none" xmlns="http://www.w3.org/2000/svg"><rect width="48" height="48" rx="8" fill="#F2F3F4"/><g clip-path="url(#clip0)"><path d="M32.998 10.001l.047.001a.982.982 0 01.538.188c.14.103.25.235.323.392l-.076-.137c.035.053.064.108.089.165l5.987 12.972a1.153 1.153 0 01.052.136 1.133 1.133 0 01.04.257v.026l-.006.11-.008.059.014-.169a.995.995 0 01-.143.515l-.005.01-8 13-.007.01a.946.946 0 01-.231.254.96.96 0 01-.167.105l-.05.024a.996.996 0 01-.091.034l.141-.058a1.003 1.003 0 01-.447.106l.145-.01a.957.957 0 01-.096.009l-.049.001h-16a.989.989 0 01-.461-.112 1.008 1.008 0 01-.264-.199l.125.111a1.006 1.006 0 01-.308-.381l.072.13a.911.911 0 01-.035-.057l-.037-.073-6-13a1.014 1.014 0 01-.092-.419v-.02c.001-.045.005-.088.012-.131L7.998 24a1.004 1.004 0 01.178-.57l-.064.106a.993.993 0 01.04-.07l.024-.035 9-13a1.013 1.013 0 01.375-.325l.037-.018a.97.97 0 01.077-.031l-.114.049a1.008 1.008 0 01.447-.106l-.165.014a.981.981 0 01.142-.014h15.023zm-11.346 15H10.558l4.644 10.062 1.996-2.662a1 1 0 011.695 1.046l-.095.154-1.8 2.4h12.38l-5.402-10.804-3.167 4.39a1 1 0 01-1.714-1.016l.092-.155L21.652 25zm11.154-12.028l-7.242 10.028h3.434a1 1 0 01.18 1.984l-.18.016h-2.882l4.972 9.942 6.118-9.942h-4.208a1 1 0 01-.18-1.984l.18-.016h4.436l-4.628-10.028zm-1.766-.972H19.616l1.276 2.553a1 1 0 01-1.694 1.048l-.094-.154-1.248-2.491-6.952 10.044h11.974l-1.774-3.553a1 1 0 011.694-1.048l.095.154 1.397 2.795 6.75-9.348z" fill="#33658A"/></g><defs><clipPath id="clip0"><path fill="#fff" transform="translate(7.998 8.001)" d="M0 0h32v32H0z"/></clipPath></defs></svg>